<?xml version="1.0" standalone="no"?><!DOCTYPE svg PUBLIC "-//W3C//DTD SVG 1.1//EN" "http://www.w3.org/Graphics/SVG/1.1/DTD/svg11.dtd"><svg height="1024" node-id="1" sillyvg="true" template-height="1024" template-width="1024" version="1.1" viewBox="0 0 1024 1024" width="1024" xmlns="http://www.w3.org/2000/svg" xmlns:xlink="http://www.w3.org/1999/xlink"><defs node-id="41"></defs><path d="M 517.70 387.00 C 510.00 374.30 500.90 360.80 486.70 356.60 C 470.20 351.80 453.30 361.30 438.90 370.70 C 396.00 398.80 354.60 429.30 315.00 462.00 L 315.00 462.50 C 345.80 460.40 376.60 458.20 407.50 456.10 C 429.80 454.60 452.80 452.80 472.50 442.30 C 480.00 438.30 487.20 433.00 495.70 432.60 C 506.20 432.10 515.40 439.50 522.60 447.10 C 565.20 492.50 577.50 561.90 625.30 601.70 C 595.20 527.40 559.20 455.60 517.70 387.00 Z" fill="#f2f2f2" fill-rule="nonzero" node-id="43" stroke="none" target-height="249.90002" target-width="310.3" target-x="315" target-y="351.8"></path><path d="M 779.60 771.80 C 774.90 765.90 773.00 764.50 768.30 758.50 C 730.50 709.60 694.90 659.00 661.60 606.70 C 639.00 571.20 617.50 535.00 597.10 498.20 C 587.40 480.70 578.00 463.00 568.80 445.20 C 561.70 431.40 554.70 417.50 547.90 403.60 C 546.00 399.60 544.10 395.60 542.20 391.60 C 537.80 382.20 533.40 372.70 528.80 363.40 C 523.50 352.80 517.00 341.70 507.20 334.50 C 502.80 331.10 497.40 329.10 491.90 328.60 C 484.00 328.10 476.60 331.40 469.70 335.00 C 419.30 361.30 372.00 394.30 329.30 431.80 C 286.50 469.40 248.20 511.90 215.30 558.40 C 214.30 559.80 211.90 558.50 212.90 557.00 C 216.90 551.30 221.00 545.70 225.20 540.20 C 277.00 471.30 340.50 412.10 412.80 365.20 C 425.00 357.30 437.40 349.80 450.00 342.70 C 456.40 339.10 462.80 335.50 469.30 332.20 C 475.70 328.90 482.40 326.00 489.70 325.90 C 514.50 325.50 527.30 353.60 536.10 372.40 C 538.90 378.30 541.70 384.30 544.50 390.20 C 555.20 412.60 566.30 434.80 577.90 456.80 C 585.00 470.40 592.30 483.90 599.70 497.30 C 622.80 539.10 647.40 580.10 673.50 620.20 C 708.00 673.30 742.20 720.30 781.50 770.00 C 782.60 771.20 780.70 773.20 779.60 771.80 Z" fill="#e4e4e4" fill-rule="nonzero" node-id="45" stroke="none" target-height="447.7" target-width="570.7" target-x="211.89998" target-y="325.5"></path><path d="M 326.90 417.80 C 325.50 416.20 324.00 414.60 322.60 413.00 C 311.20 400.40 298.90 387.90 283.20 380.60 C 275.70 377.00 267.60 375.10 259.30 375.10 C 250.70 375.10 242.40 377.40 234.50 380.50 C 230.80 382.00 227.10 383.70 223.50 385.50 C 219.40 387.60 215.30 389.80 211.30 392.00 C 203.70 396.20 196.30 400.50 188.90 405.10 C 174.30 414.10 160.10 423.90 146.40 434.30 C 139.30 439.70 132.30 445.30 125.50 451.10 C 119.20 456.50 112.90 462.00 106.90 467.60 C 105.60 468.80 103.70 466.90 105.00 465.70 C 106.60 464.20 108.20 462.70 109.80 461.30 C 114.40 457.20 119.00 453.10 123.80 449.10 C 132.40 441.80 141.30 434.80 150.30 428.10 C 164.40 417.60 179.00 407.90 194.10 398.90 C 201.60 394.40 209.30 390.10 217.00 385.90 C 219.30 384.70 221.70 383.40 224.10 382.30 C 229.50 379.60 235.20 377.30 241.00 375.40 C 249.20 372.70 257.90 371.90 266.50 372.90 C 274.80 374.10 282.80 376.90 290.00 381.00 C 305.40 389.60 317.30 402.90 329.00 415.90 C 330.00 417.20 328.10 419.10 326.90 417.80 Z" fill="#e4e4e4" fill-rule="nonzero" node-id="47" stroke="none" target-height="96.899994" target-width="226.3" target-x="103.7" target-y="371.9"></path><path d="M 642.50 548.70 L 679.40 535.20 L 697.70 528.50 C 703.70 526.30 709.60 523.80 715.80 522.30 C 721.20 520.80 726.90 520.80 732.20 522.50 C 736.90 524.30 741.30 526.90 745.00 530.40 C 748.80 533.90 752.30 537.60 755.50 541.60 C 759.50 546.40 763.40 551.20 767.40 556.10 C 783.70 576.00 799.90 596.00 816.00 616.10 C 832.10 636.20 848.10 656.40 863.90 676.70 C 879.80 697.00 895.60 717.40 911.30 737.90 C 913.20 740.40 915.10 742.90 917.10 745.40 C 918.20 746.80 920.50 745.40 919.50 744.00 C 903.70 723.30 887.80 702.70 871.80 682.20 C 855.70 661.60 839.60 641.10 823.30 620.70 C 807.00 600.30 790.60 580.00 774.10 559.80 C 770.00 554.80 765.90 549.70 761.70 544.70 C 758.20 540.50 754.80 536.20 751.00 532.20 C 744.00 525.00 735.20 518.60 724.80 518.40 C 718.60 518.30 712.70 520.30 707.00 522.30 C 700.80 524.50 694.70 526.80 688.50 529.10 L 651.00 542.70 L 641.70 546.10 C 640.10 546.70 640.80 549.30 642.50 548.70 L 642.50 548.70 Z" fill="#e4e4e4" fill-rule="nonzero" node-id="49" stroke="none" target-height="228.5" target-width="280.40002" target-x="640.1" target-y="518.3"></path><path d="M 278.40 396.50 C 259.60 386.90 235.60 388.70 218.40 400.80 C 251.30 406.50 283.80 414.10 315.80 423.50 C 302.50 415.80 292.10 403.60 278.40 396.50 Z" fill="#f2f2f2" fill-rule="nonzero" node-id="51" stroke="none" target-height="36.599976" target-width="97.399994" target-x="218.4" target-y="386.9"></path><path d="M 218.20 400.80 L 214.60 403.70 C 215.80 402.70 217.10 401.70 218.40 400.80 C 218.30 400.80 218.20 400.80 218.20 400.80 Z" fill="#f2f2f2" fill-rule="nonzero" node-id="53" stroke="none" target-height="2.9000244" target-width="3.7999878" target-x="214.6" target-y="400.8"></path><path d="M 743.50 548.80 C 739.90 544.40 735.90 539.70 730.50 538.00 L 725.40 538.20 C 764.00 606.40 816.20 666.10 878.70 713.40 C 833.70 658.60 788.60 603.70 743.50 548.80 Z" fill="#f2f2f2" fill-rule="nonzero" node-id="55" stroke="none" target-height="175.39996" target-width="153.30005" target-x="725.4" target-y="538"></path><path d="M 428.10 512.40 C 430.40 520.90 435.70 528.40 443.00 533.40 C 445.80 535.30 449.20 537.20 450.10 540.40 C 450.60 542.50 450.30 544.70 449.20 546.50 C 448.10 548.30 446.80 550.00 445.30 551.50 L 445.20 552.00 C 438.20 547.90 431.50 542.60 427.70 535.40 C 423.90 528.40 423.30 519.00 428.10 512.40" fill="#f2f2f2" fill-rule="nonzero" node-id="57" stroke="none" target-height="39.599976" target-width="27.300018" target-x="423.3" target-y="512.4"></path><path d="M 661.10 715.40 C 663.40 723.90 668.70 731.40 676.00 736.40 C 678.80 738.30 682.20 740.20 683.10 743.40 C 683.60 745.50 683.30 747.70 682.20 749.50 C 681.10 751.30 679.80 753.00 678.30 754.50 L 678.20 755.00 C 671.20 750.90 664.50 745.60 660.70 738.40 C 656.90 731.20 656.30 722.00 661.10 715.40" fill="#f2f2f2" fill-rule="nonzero" node-id="59" stroke="none" target-height="39.600037" target-width="27.299988" target-x="656.3" target-y="715.39996"></path><path d="M 196.10 701.40 C 198.40 709.90 203.70 717.40 211.00 722.40 C 213.80 724.30 217.20 726.20 218.10 729.40 C 218.60 731.50 218.30 733.70 217.20 735.50 C 216.10 737.30 214.80 739.00 213.30 740.50 L 213.20 741.00 C 206.20 736.90 199.50 731.60 195.70 724.40 C 191.90 717.20 191.30 708.00 196.10 701.40" fill="#f2f2f2" fill-rule="nonzero" node-id="61" stroke="none" target-height="39.599976" target-width="27.300003" target-x="191.29999" target-y="701.4"></path><path d="M 782.20 277.40 C 782.20 305.57 759.37 328.40 731.20 328.40 C 703.03 328.40 680.20 305.57 680.20 277.40 C 680.20 249.23 703.03 226.40 731.20 226.40 C 759.37 226.40 782.20 249.23 782.20 277.40 Z" fill="#c5a47a" fill-rule="nonzero" node-id="63" stroke="none" target-height="102" target-width="102" target-x="680.2" target-y="226.4"></path><path d="M 823.20 238.30 C 798.50 235.00 770.30 248.30 763.90 272.40 C 759.70 261.20 747.20 255.60 736.10 259.80 C 729.60 262.30 724.60 267.70 722.80 274.50 L 725.60 276.50 C 778.60 288.00 833.40 287.70 886.30 275.80 C 869.10 257.80 847.90 241.60 823.20 238.30 Z" fill="#f0f0f0" fill-rule="nonzero" node-id="65" stroke="none" target-height="53" target-width="163.5" target-x="722.8" target-y="235"></path><path d="M 717.20 306.30 C 692.50 303.00 664.30 316.30 657.90 340.40 C 653.70 329.20 641.20 323.60 630.10 327.80 C 623.60 330.30 618.60 335.70 616.80 342.50 L 619.60 344.50 C 672.60 356.00 727.40 355.70 780.30 343.80 C 763.10 325.80 741.90 309.60 717.20 306.30 Z" fill="#f0f0f0" fill-rule="nonzero" node-id="67" stroke="none" target-height="53" target-width="163.5" target-x="616.8" target-y="303"></path><path d="M 932.90 319.20 C 932.80 319.20 932.70 319.20 932.60 319.20 C 668.20 235.60 435.20 246.50 286.20 270.40 C 265.90 273.70 245.60 277.40 225.80 281.60 C 220.70 282.70 215.50 283.80 210.20 285.00 C 203.90 286.40 197.60 287.90 191.70 289.30 C 189.10 289.90 186.60 290.50 184.10 291.10 C 180.30 292.00 176.50 293.00 172.40 294.10 C 167.80 295.30 163.20 296.50 158.60 297.80 C 158.60 297.80 158.60 297.80 158.50 297.80 L 158.50 297.80 C 153.30 299.20 148.20 300.70 143.20 302.10 C 140.50 302.90 137.90 303.60 135.40 304.40 C 135.10 304.50 134.90 304.60 134.60 304.60 L 134.10 304.80 C 133.80 304.90 133.50 305.00 133.20 305.10 L 133.20 305.10 L 133.20 305.10 L 132.40 305.40 C 131.40 305.70 130.50 306.00 129.60 306.30 C 105.10 313.90 91.60 319.20 91.40 319.30 C 90.90 319.50 90.30 319.30 90.10 318.70 C 89.90 318.10 90.10 317.60 90.70 317.40 C 90.80 317.30 104.40 311.90 129.00 304.30 C 129.90 304.00 130.90 303.70 131.80 303.40 L 132.60 303.20 C 132.60 303.20 132.70 303.20 132.70 303.20 C 133.00 303.10 133.30 303.00 133.60 302.90 L 134.10 302.70 C 134.40 302.60 134.60 302.50 134.90 302.50 C 137.40 301.70 140.00 301.00 142.70 300.20 C 147.70 298.70 152.80 297.30 158.00 295.90 C 158.00 295.90 158.00 295.90 158.00 295.90 L 158.00 295.90 C 162.60 294.60 167.30 293.40 171.80 292.20 C 175.90 291.10 179.70 290.20 183.50 289.20 C 186.00 288.60 188.50 288.00 191.10 287.30 C 197.10 285.80 203.30 284.40 209.70 283.00 C 215.00 281.80 220.30 280.70 225.30 279.60 C 245.10 275.40 265.50 271.70 285.80 268.40 C 434.90 244.50 668.30 233.50 933.10 317.30 C 933.60 317.50 933.90 318.00 933.80 318.60 C 933.80 318.90 933.40 319.20 932.90 319.20 Z" fill="#cccccc" fill-rule="nonzero" node-id="69" stroke="none" target-height="86" target-width="844" target-x="89.9" target-y="233.5"></path><path d="M 344.90 646.30 C 344.60 645.30 344.00 644.40 343.20 643.60 C 342.90 643.30 342.60 643.10 342.30 642.90 C 339.70 641.20 335.80 640.80 333.30 642.90 C 333.10 643.10 332.80 643.40 332.60 643.60 C 331.90 644.50 331.10 645.40 330.30 646.30 C 329.00 647.80 327.70 649.20 326.30 650.50 C 325.90 650.90 325.50 651.30 325.10 651.70 C 324.90 651.90 324.60 652.20 324.40 652.40 C 323.50 653.20 322.60 654.10 321.70 654.90 C 321.20 655.30 320.70 655.70 320.20 656.20 C 319.50 656.80 318.70 657.40 318.00 658.00 C 317.90 658.00 317.90 658.10 317.80 658.20 C 317.80 658.20 317.80 658.20 317.80 658.20 C 317.80 658.20 317.80 658.20 317.80 658.20 C 317.80 658.20 317.70 658.20 317.70 658.20 C 317.50 658.40 317.30 658.40 317.20 658.50 C 317.20 658.50 317.30 658.50 317.30 658.40 C 317.10 658.50 316.90 658.70 316.80 658.80 C 315.00 660.10 313.30 661.30 311.40 662.50 C 306.90 665.40 302.10 667.90 297.20 670.00 C 296.90 670.10 296.50 670.30 296.20 670.40 C 283.30 675.70 269.30 677.80 255.30 676.40 C 253.90 676.30 252.50 676.10 251.00 675.90 C 249.40 675.70 247.70 675.40 246.10 675.00 C 239.90 673.80 233.90 671.90 228.10 669.60 C 220.80 666.30 213.90 662.20 207.40 657.50 C 206.40 656.80 205.40 656.10 204.40 655.40 C 205.50 652.60 206.70 649.80 207.80 646.90 C 208.30 645.50 208.90 644.20 209.40 642.80 C 213.50 632.20 217.30 621.40 221.00 610.70 C 224.70 599.80 228.20 588.80 231.50 577.80 C 231.80 576.70 232.20 575.60 232.50 574.40 C 234.20 568.60 235.90 562.70 237.50 556.90 C 237.60 556.30 237.80 555.80 238.00 555.20 C 238.50 553.50 238.90 551.80 239.40 550.20 C 240.40 546.40 238.10 541.90 234.20 541.00 C 230.20 540.00 226.10 542.30 225.00 546.20 C 224.60 547.80 224.10 549.40 223.70 551.10 C 221.60 558.90 219.40 566.70 217.00 574.50 C 216.70 575.60 216.30 576.70 216.00 577.90 C 210.90 594.80 205.20 611.60 199.10 628.20 C 198.40 630.20 197.60 632.20 196.90 634.20 C 196.50 635.20 196.20 636.20 195.80 637.10 C 195.10 639.00 194.30 641.00 193.60 642.90 C 193.20 644.00 192.70 645.20 192.30 646.30 C 192.00 647.00 191.70 647.70 191.40 648.40 C 188.50 647.40 185.60 646.70 182.60 646.30 L 182.10 646.20 C 179.80 645.90 177.40 645.90 175.10 646.30 C 168.10 647.10 161.70 651.00 157.90 657.00 C 153.10 664.50 153.20 675.20 159.90 681.60 C 166.80 688.20 177.20 688.10 185.30 684.00 C 189.60 681.70 193.20 678.30 195.80 674.10 C 196.80 672.60 197.70 671.00 198.50 669.40 C 198.70 669.50 198.90 669.70 199.10 669.80 C 199.90 670.40 200.70 670.90 201.50 671.50 C 206.10 674.80 211.00 677.80 216.00 680.40 C 226.90 685.80 238.60 689.30 250.60 690.90 C 250.90 690.90 251.10 691.00 251.40 691.00 C 252.70 691.20 254.10 691.30 255.40 691.40 C 274.60 692.80 293.90 688.90 311.00 680.00 C 312.40 679.20 313.90 678.50 315.30 677.60 C 317.50 676.30 319.70 675.00 321.80 673.50 C 322.90 672.70 324.10 671.90 325.20 671.10 C 330.10 667.50 334.60 663.50 338.70 659.10 C 340.30 657.50 341.80 655.70 343.20 654.00 C 344.60 652.60 345.30 650.70 345.40 648.70 C 345.40 648.00 345.20 647.10 344.90 646.30 Z M 179.30 670.10 C 179.50 669.90 179.70 669.80 179.90 669.60 C 179.90 669.80 179.60 669.90 179.30 670.10 L 179.30 670.10 Z M 182.50 666.90 C 182.30 667.20 182.10 667.40 181.80 667.70 C 181.10 668.50 180.30 669.20 179.60 669.90 C 179.50 670.00 179.40 670.10 179.20 670.20 C 179.20 670.20 179.20 670.20 179.20 670.20 C 179.20 670.20 179.20 670.20 179.20 670.20 C 179.10 670.30 178.90 670.30 178.80 670.40 C 178.40 670.70 177.90 670.90 177.50 671.10 C 176.60 671.40 175.70 671.70 174.80 671.90 C 174.10 672.00 173.40 672.00 172.70 671.90 L 172.70 671.90 C 172.20 671.80 171.70 671.70 171.20 671.50 C 171.00 671.40 170.70 671.20 170.50 671.10 C 170.40 671.00 170.30 670.90 170.30 670.90 C 170.20 670.80 170.10 670.70 170.00 670.60 C 170.00 670.60 170.00 670.60 170.00 670.60 C 170.00 670.60 170.00 670.60 170.00 670.60 C 169.90 670.40 169.80 670.20 169.70 670.00 C 169.70 670.00 169.70 670.00 169.70 670.00 C 169.60 669.80 169.60 669.50 169.50 669.20 C 169.50 668.70 169.50 668.30 169.50 667.80 C 169.60 667.20 169.80 666.50 170.00 665.90 C 170.20 665.50 170.40 665.00 170.70 664.60 C 170.70 664.60 170.80 664.40 170.90 664.20 C 170.90 664.20 170.90 664.20 170.90 664.20 C 171.00 664.00 171.20 663.90 171.40 663.70 C 171.70 663.40 172.00 663.10 172.30 662.90 C 172.90 662.50 173.40 662.20 174.10 661.90 C 175.10 661.60 176.00 661.30 177.00 661.10 C 178.50 661.00 179.90 661.00 181.40 661.10 C 182.80 661.30 184.20 661.70 185.50 662.10 C 184.70 663.70 183.80 665.20 182.70 666.60 C 182.60 666.70 182.60 666.80 182.50 666.90 Z M 171.40 663.60 C 171.30 663.70 171.20 663.90 171.10 664.00 C 171.20 663.80 171.30 663.70 171.40 663.60 L 171.40 663.60 Z" fill="#3f3d56" fill-rule="nonzero" node-id="71" stroke="none" target-height="152.79999" target-width="192.29999" target-x="153.1" target-y="540"></path><path d="M 314.90 544.10 C 314.80 547.20 314.70 550.40 314.60 553.50 C 314.40 560.50 314.20 567.40 314.00 574.40 C 313.80 582.20 313.60 590.10 313.30 597.90 C 313.20 602.00 313.10 606.00 313.00 610.10 C 312.70 621.00 312.40 631.90 312.10 642.80 C 312.10 643.90 312.00 645.00 312.00 646.20 C 311.90 651.60 311.70 657.00 311.50 662.40 C 311.30 668.30 311.20 674.10 311.00 680.00 C 310.90 684.40 310.80 688.80 310.60 693.20 C 309.70 725.10 308.80 757.10 307.90 789.00 C 307.80 793.10 304.50 796.40 300.40 796.50 C 296.30 796.50 292.90 793.10 292.90 789.00 C 293.40 771.00 293.90 753.10 294.40 735.10 C 294.90 718.90 295.30 702.60 295.80 686.40 C 295.90 681.00 296.10 675.70 296.30 670.30 C 296.50 662.20 296.80 654.20 297.00 646.10 C 297.00 645.00 297.10 643.90 297.10 642.70 C 297.10 641.70 297.10 640.70 297.20 639.70 C 297.60 624.00 298.10 608.40 298.50 592.70 C 298.70 586.50 298.90 580.40 299.00 574.20 C 299.20 567.20 299.40 560.10 299.60 553.10 C 299.70 550.00 299.80 546.90 299.90 543.80 C 300.00 539.70 303.30 536.40 307.40 536.30 C 311.50 536.70 314.80 540.00 314.90 544.10 Z" fill="#3f3d56" fill-rule="nonzero" node-id="73" stroke="none" target-height="260.19995" target-width="22" target-x="292.9" target-y="536.3"></path><path d="M 726.30 546.20 C 718.40 576.00 709.00 605.30 698.10 634.10 C 695.10 642.00 692.00 650.00 688.70 657.80 L 689.50 656.00 C 688.00 659.70 686.20 663.30 683.90 666.60 C 683.70 666.80 683.60 667.00 683.40 667.20 C 684.20 666.20 684.30 666.00 683.80 666.60 C 683.50 666.90 683.30 667.20 683.00 667.50 C 682.30 668.30 681.50 669.00 680.80 669.70 C 680.60 669.90 680.40 670.00 680.20 670.20 L 681.10 669.50 C 681.00 669.80 680.20 670.10 680.00 670.20 C 679.20 670.70 678.40 671.10 677.60 671.40 L 679.40 670.60 C 678.00 671.10 676.60 671.50 675.20 671.80 L 677.20 671.50 C 675.80 671.70 674.30 671.70 672.90 671.50 L 674.90 671.80 C 673.70 671.60 672.60 671.30 671.50 670.90 L 673.30 671.70 C 672.70 671.40 672.20 671.10 671.60 670.80 C 671.30 670.60 670.50 670.00 671.60 670.80 C 672.70 671.70 671.70 670.90 671.50 670.60 C 671.30 670.40 671.10 670.20 670.90 670.00 C 670.00 669.10 671.90 671.60 671.30 670.50 C 671.00 670.00 670.70 669.40 670.40 668.90 L 671.20 670.70 C 670.90 669.80 670.60 669.00 670.50 668.00 L 670.80 670.00 C 670.70 668.90 670.70 667.70 670.80 666.60 L 670.50 668.60 C 670.70 667.30 671.00 666.10 671.50 664.90 L 670.70 666.70 C 671.00 665.90 671.40 665.10 671.90 664.40 C 672.10 664.00 672.40 663.70 672.60 663.30 C 672.60 663.30 671.30 664.80 672.00 664.10 C 672.20 663.90 672.40 663.70 672.50 663.50 C 672.80 663.20 673.10 662.90 673.40 662.60 C 674.40 661.60 671.90 663.60 673.10 662.80 C 674.00 662.20 674.90 661.70 675.80 661.30 L 674.00 662.10 C 675.60 661.40 677.30 661.00 679.00 660.80 L 677.00 661.10 C 679.10 660.90 681.30 660.90 683.50 661.20 L 681.50 660.90 C 684.20 661.30 686.90 662.10 689.40 663.10 L 687.60 662.30 C 693.00 664.60 697.80 668.00 702.50 671.40 C 707.10 674.70 712.00 677.70 717.00 680.30 C 727.90 685.70 739.60 689.20 751.60 690.80 C 786.70 695.10 821.60 681.30 844.20 654.00 C 845.60 652.60 846.30 650.70 846.40 648.70 C 846.40 646.70 845.60 644.80 844.20 643.40 C 841.40 640.90 836.30 640.20 833.60 643.40 C 831.10 646.50 828.40 649.40 825.50 652.10 C 824.20 653.40 822.80 654.60 821.40 655.80 C 820.60 656.50 819.80 657.20 818.90 657.80 C 818.50 658.10 817.30 658.90 819.20 657.60 C 818.80 657.90 818.40 658.20 817.90 658.60 C 811.60 663.20 804.80 667.10 797.60 670.20 L 799.40 669.40 C 791.70 672.60 783.50 674.90 775.20 676.00 L 777.20 675.70 C 768.70 676.80 760.00 676.80 751.40 675.70 L 753.40 676.00 C 744.90 674.80 736.50 672.60 728.50 669.20 L 730.30 670.00 C 722.60 666.60 715.30 662.40 708.60 657.40 C 705.10 654.80 701.40 652.50 697.50 650.40 C 693.00 648.10 688.10 646.60 683.10 646.00 C 673.70 644.90 664.00 648.60 658.90 656.70 C 654.10 664.20 654.20 674.90 660.90 681.30 C 667.80 687.90 678.20 687.80 686.30 683.70 C 694.10 679.70 698.80 671.50 702.10 663.80 C 709.50 646.30 716.10 628.50 722.20 610.50 C 728.30 592.70 733.80 574.80 738.70 556.70 C 739.30 554.50 739.90 552.20 740.50 550.00 C 741.50 546.20 739.20 541.70 735.30 540.80 C 731.50 540.00 727.50 542.30 726.30 546.20 L 726.30 546.20 Z" fill="#3f3d56" fill-rule="nonzero" node-id="75" stroke="none" target-height="155.09998" target-width="192.30011" target-x="654.1" target-y="540"></path><path d="M 801.10 544.10 L 798.40 639.90 L 795.70 735.20 L 794.20 789.10 C 794.20 793.20 797.60 796.60 801.70 796.60 C 805.80 796.50 809.10 793.20 809.20 789.10 L 811.90 693.30 L 814.60 598.00 L 816.10 544.10 C 816.10 540.00 812.70 536.60 808.60 536.60 C 804.50 536.70 801.20 540.00 801.10 544.10 Z" fill="#3f3d56" fill-rule="nonzero" node-id="77" stroke="none" target-height="260" target-width="21.899963" target-x="794.2" target-y="536.6"></path><g node-id="118"><path d="M 541.50 762.40 L 543.80 762.40 L 543.80 656.40 L 598.10 656.40 L 598.10 654.00 L 543.80 654.00 L 543.80 609.30 L 585.80 609.30 C 585.20 608.50 584.60 607.70 583.90 607.00 L 543.80 607.00 L 543.80 577.40 C 543.00 577.10 542.30 576.80 541.50 576.50 L 541.50 607.00 L 495.80 607.00 L 495.80 569.10 C 495.00 569.10 494.20 569.20 493.50 569.30 L 493.50 607.00 L 457.10 607.00 L 457.10 578.70 C 456.30 579.00 455.50 579.40 454.80 579.80 L 454.80 607.00 L 424.20 607.00 L 424.20 609.30 L 454.80 609.30 L 454.80 654.00 L 424.20 654.00 L 424.20 656.30 L 454.80 656.30 L 454.80 762.30 L 457.10 762.30 L 457.10 656.30 C 477.20 656.30 493.50 672.60 493.50 692.70 C 493.50 692.70 493.50 692.70 493.50 692.70 L 493.50 762.30 L 495.80 762.30 L 495.80 656.30 L 541.50 656.30 L 541.50 762.40 Z M 457.10 654.00 L 457.10 609.30 L 493.50 609.30 L 493.50 654.00 L 457.10 654.00 Z M 495.90 654.00 L 495.90 609.30 L 496.80 609.30 C 521.50 609.30 541.50 629.30 541.50 654.00 C 541.50 654.00 541.50 654.00 541.50 654.00 L 495.90 654.00 Z" fill="#000000" fill-opacity="0.2" fill-rule="nonzero" group-id="1" node-id="81" stroke="none" target-height="193.30005" target-width="173.89993" target-x="424.20004" target-y="569.1"></path></g><path d="M 527.30 730.60 C 524.40 743.70 517.30 755.50 507.30 764.30 C 506.60 764.90 505.80 765.60 505.10 766.20 C 503.20 766.40 501.40 766.50 499.50 766.70 C 498.00 766.80 496.50 767.00 495.00 767.10 L 494.70 767.10 L 494.50 765.50 L 493.70 758.90 C 487.70 749.10 486.50 737.20 490.40 726.50 C 493.00 719.40 497.80 713.10 502.50 706.80 C 509.00 698.20 515.30 689.70 515.50 679.10 C 518.70 683.20 521.30 687.70 523.40 692.40 C 521.50 693.30 519.70 694.60 518.30 696.20 C 517.90 696.70 517.50 697.30 517.80 697.80 C 518.00 698.30 518.60 698.40 519.20 698.40 C 520.40 698.50 521.70 698.70 523.00 698.80 C 524.00 698.90 525.00 699.00 526.00 699.10 C 527.20 703.10 528.00 707.20 528.50 711.30 C 529.00 717.80 528.70 724.30 527.30 730.60 Z" fill="#3f3d56" fill-rule="nonzero" node-id="84" stroke="none" target-height="87.99994" target-width="42.50003" target-x="486.49997" target-y="679.1"></path><path d="M 560.50 704.40 C 554.60 708.70 551.20 714.90 548.50 721.70 C 545.80 722.60 543.30 724.20 541.30 726.30 C 540.90 726.80 540.50 727.40 540.80 727.90 C 541.00 728.40 541.60 728.50 542.20 728.50 C 543.40 728.60 544.70 728.80 546.00 728.90 C 543.30 736.90 540.90 745.30 536.10 752.10 C 532.90 756.60 528.80 760.30 524.10 763.00 C 522.80 763.70 521.50 764.40 520.10 765.00 C 515.00 765.40 510.00 765.80 505.10 766.20 C 503.20 766.40 501.40 766.50 499.50 766.70 C 498.00 766.80 496.50 767.00 495.00 767.10 C 495.00 766.60 495.00 766.00 495.00 765.40 C 495.30 750.70 500.70 736.70 510.20 725.50 C 510.70 725.00 511.10 724.50 511.60 724.00 C 516.40 718.80 522.10 714.50 528.40 711.30 C 538.20 706.20 549.30 703.80 560.50 704.40 Z" fill="#c5a47a" fill-rule="nonzero" node-id="86" stroke="none" target-height="63.299988" target-width="65.5" target-x="495" target-y="703.7999"></path><path d="M 501.20 761.50 L 500.00 764.90 L 499.40 766.60 C 497.90 766.70 496.40 766.90 494.90 767.00 L 494.60 767.00 C 492.90 767.20 491.30 767.30 489.60 767.50 C 489.20 767.00 488.70 766.50 488.30 766.00 C 466.60 739.70 470.20 700.80 496.40 678.90 C 495.10 685.80 496.60 692.40 499.20 699.00 C 498.90 699.10 498.70 699.20 498.40 699.30 C 496.50 700.20 494.70 701.50 493.30 703.10 C 492.90 703.60 492.50 704.20 492.80 704.70 C 493.00 705.20 493.60 705.30 494.20 705.30 C 495.40 705.40 496.70 705.60 498.00 705.70 C 499.00 705.80 500.00 705.90 501.00 706.00 C 501.50 706.00 501.90 706.10 502.40 706.20 C 502.50 706.40 502.50 706.50 502.60 706.60 C 505.40 712.80 508.50 719.00 510.30 725.40 C 510.70 727.00 511.10 728.70 511.30 730.30 C 512.70 741.80 509.00 753.20 501.20 761.50 Z" fill="#c5a47a" fill-rule="nonzero" node-id="88" stroke="none" target-height="88.599915" target-width="46.100006" target-x="466.6" target-y="678.9"></path><path d="M 601.80 616.50 C 593.20 599.70 579.90 585.60 564.20 575.20 C 548.50 564.80 530.40 558.50 511.60 556.80 C 509.10 556.60 506.70 556.40 504.20 556.40 C 501.30 556.40 457.30 569.00 442.60 579.40 C 427.90 589.60 415.80 603.20 407.30 618.90 C 398.80 634.70 394.60 652.60 395.20 670.50 C 395.90 688.60 401.00 706.20 409.90 722.00 C 418.70 737.70 431.20 751.00 446.30 760.70 C 461.60 770.50 477.00 796.40 495.20 797.40 C 513.40 798.30 534.30 773.80 550.90 766.40 C 567.50 758.90 581.90 747.20 592.60 732.40 C 603.00 717.90 609.70 701.10 612.20 683.50 C 614.80 665.40 613.60 646.80 607.40 629.50 C 605.80 625.00 604.00 620.70 601.80 616.50 C 600.00 613.00 594.80 611.70 591.50 613.80 C 588.00 616.00 586.80 620.50 588.80 624.10 C 589.80 626.20 590.80 628.30 591.70 630.40 L 590.90 628.60 C 594.30 636.80 596.60 645.40 597.80 654.10 L 597.50 652.10 C 598.70 661.60 598.70 671.30 597.40 680.80 L 597.70 678.80 C 596.40 688.30 593.90 697.60 590.10 706.50 L 590.90 704.70 C 589.00 709.20 586.80 713.60 584.20 717.80 C 582.90 719.90 581.60 722.00 580.10 724.00 C 579.50 724.90 578.80 725.80 578.20 726.60 C 577.30 727.70 579.40 725.10 578.50 726.20 C 578.30 726.40 578.20 726.60 578.00 726.80 C 577.50 727.40 577.10 727.90 576.60 728.50 C 573.50 732.20 570.10 735.70 566.40 738.90 C 565.50 739.70 564.60 740.50 563.60 741.20 C 563.10 741.60 562.70 742.00 562.20 742.30 C 562.20 742.30 563.80 741.10 562.90 741.80 C 562.60 742.00 562.30 742.20 562.00 742.50 C 560.10 743.90 558.10 745.30 556.00 746.60 C 551.30 749.60 546.40 752.10 541.20 754.30 L 543.00 753.50 C 534.20 757.20 524.90 759.80 515.40 761.10 L 517.40 760.80 C 507.90 762.10 498.30 762.10 488.80 760.90 L 490.80 761.20 C 482.20 760.00 473.70 757.80 465.70 754.40 L 467.50 755.20 C 462.80 753.20 458.40 750.90 454.10 748.20 C 452.00 746.90 449.90 745.50 447.90 744.00 C 447.60 743.80 447.30 743.60 447.00 743.40 C 446.10 742.70 447.70 743.90 447.70 743.90 C 447.20 743.50 446.70 743.10 446.20 742.70 C 445.20 741.90 444.30 741.10 443.30 740.30 C 439.50 737.00 436.00 733.40 432.80 729.60 C 432.00 728.60 431.20 727.70 430.40 726.70 C 430.10 726.30 429.50 725.40 430.80 727.20 C 430.60 727.00 430.40 726.70 430.30 726.50 C 429.90 725.90 429.40 725.40 429.00 724.80 C 427.50 722.80 426.10 720.70 424.80 718.60 C 421.80 713.80 419.20 708.70 417.00 703.50 L 417.80 705.30 C 414.20 696.70 411.70 687.70 410.50 678.50 L 410.80 680.50 C 409.70 672.00 409.60 663.40 410.80 654.90 L 410.50 656.90 C 411.60 648.70 413.90 640.60 417.10 632.90 L 416.30 634.70 C 418.30 629.90 420.70 625.30 423.50 620.80 C 424.90 618.60 426.30 616.40 427.90 614.30 C 428.30 613.80 428.60 613.30 429.00 612.90 C 429.30 612.50 430.20 611.40 428.70 613.30 C 428.80 613.10 429.00 612.90 429.10 612.70 C 429.90 611.60 430.80 610.60 431.70 609.50 C 435.10 605.60 438.70 601.90 442.60 598.50 C 443.60 597.60 444.60 596.80 445.60 596.00 C 446.10 595.60 446.50 595.30 447.00 594.90 C 447.20 594.80 447.40 594.60 447.60 594.50 C 445.60 596.10 447.00 594.90 447.50 594.60 C 449.60 593.00 451.70 591.50 453.90 590.10 C 458.80 587.00 463.90 584.30 469.30 582.00 L 467.50 582.80 C 475.30 579.50 509.60 571.90 515.90 572.70 L 513.90 572.40 C 523.10 573.70 532.10 576.20 540.60 579.80 L 538.80 579.00 C 543.10 580.80 547.30 583.00 551.40 585.30 C 553.40 586.50 555.40 587.70 557.40 589.10 C 558.30 589.70 559.20 590.40 560.10 591.00 C 560.60 591.30 561.00 591.70 561.40 592.00 C 561.60 592.20 561.90 592.40 562.10 592.60 C 563.10 593.40 560.70 591.50 561.80 592.30 C 565.40 595.20 568.90 598.30 572.20 601.60 C 573.80 603.20 575.30 604.90 576.80 606.60 C 577.60 607.50 578.30 608.40 579.00 609.30 C 579.40 609.80 580.60 611.40 579.10 609.40 C 579.50 609.90 579.80 610.40 580.20 610.90 C 583.40 615.20 586.20 619.70 588.60 624.40 C 590.40 627.90 595.60 629.20 598.90 627.10 C 602.60 624.60 603.80 620.10 601.80 616.50 Z" fill="#3f3d56" fill-rule="nonzero" node-id="90" stroke="none" target-height="241.89996" target-width="220.19998" target-x="394.6" target-y="556.4"></path><path d="M 514.40 738.90 C 512.30 739.00 510.50 737.40 510.50 735.30 C 510.40 734.20 510.90 733.10 511.70 732.40 C 511.80 732.00 511.90 731.70 512.00 731.40 C 512.00 731.30 511.90 731.20 511.90 731.20 C 508.40 722.90 486.20 746.00 485.30 753.80 C 484.90 757.20 485.10 760.70 485.80 764.10 C 478.60 748.40 474.90 731.40 474.80 714.10 C 474.80 709.80 475.00 705.40 475.50 701.10 C 475.90 697.60 476.50 694.10 477.20 690.60 C 481.10 671.70 489.30 654.00 501.40 639.00 C 508.30 639.40 514.30 638.30 514.90 625.00 C 515.00 622.60 516.80 620.60 517.10 618.20 C 516.40 618.30 515.80 618.30 515.10 618.40 C 514.90 618.40 514.70 618.40 514.50 618.40 L 514.40 618.40 C 512.30 618.50 510.60 616.90 510.50 614.80 C 510.50 613.90 510.80 613.00 511.30 612.30 C 511.60 612.00 511.90 611.60 512.20 611.30 C 512.60 610.80 513.10 610.20 513.50 609.70 C 513.50 609.60 513.60 609.60 513.60 609.50 C 514.10 608.90 514.60 608.30 515.10 607.70 C 514.20 606.30 513.00 605.10 511.50 604.30 C 506.50 601.40 499.70 603.40 496.10 607.90 C 492.50 612.40 491.80 618.70 493.10 624.30 C 494.30 629.10 496.40 633.60 499.10 637.70 C 498.80 638.00 498.60 638.40 498.30 638.70 C 493.40 645.00 489.10 651.80 485.50 659.00 C 486.50 651.10 474.10 622.40 469.30 616.30 C 463.50 609.00 451.70 612.20 450.70 621.40 C 450.70 621.50 450.70 621.60 450.70 621.70 C 451.40 622.10 452.10 622.50 452.80 623.00 C 455.20 624.60 455.80 627.80 454.20 630.10 C 453.40 631.30 452.10 632.10 450.70 632.30 L 450.60 632.30 C 441.00 645.90 471.70 681.50 479.30 673.50 C 475.70 683.70 473.40 694.40 472.60 705.20 C 472.10 711.60 472.10 718.00 472.70 724.40 L 472.70 724.20 C 471.00 710.30 441.80 689.70 433.20 691.40 C 428.30 692.40 423.40 692.20 424.20 697.10 C 424.20 697.20 424.20 697.30 424.20 697.30 C 425.50 697.80 426.80 698.50 428.10 699.20 C 428.80 699.60 429.50 700.00 430.20 700.50 C 432.60 702.10 433.20 705.30 431.60 707.60 C 430.80 708.80 429.50 709.60 428.10 709.80 L 428.00 709.80 C 427.90 709.80 427.90 709.80 427.80 709.80 C 423.50 724.80 455.70 748.90 475.30 741.20 L 475.30 741.20 C 477.20 749.60 480.10 757.90 483.70 765.70 L 513.70 765.70 C 513.80 765.40 513.90 765.00 514.00 764.70 C 511.20 764.90 508.40 764.70 505.70 764.20 C 507.90 761.50 510.20 758.70 512.40 756.00 C 512.40 755.90 512.50 755.90 512.50 755.80 C 513.60 754.40 514.80 753.00 515.90 751.60 L 515.90 751.60 C 516.00 747.30 515.50 743.00 514.40 738.90 L 514.40 738.90 Z M 480.10 671.30 L 480.10 671.30 L 480.10 671.30 L 480.10 671.30 Z M 473.40 731.20 L 473.10 730.60 C 473.10 730.20 473.10 729.80 473.10 729.30 C 473.10 729.20 473.10 729.10 473.10 728.90 C 473.20 729.70 473.30 730.50 473.40 731.20 L 473.40 731.20 Z" fill="#3f3d56" fill-rule="nonzero" node-id="92" stroke="none" target-height="164.29999" target-width="93.69998" target-x="423.4" target-y="601.4"></path><path d="M 188.20 665.40 C 188.20 671.48 183.28 676.40 177.20 676.40 C 171.12 676.40 166.20 671.48 166.20 665.40 C 166.20 659.32 171.12 654.40 177.20 654.40 C 183.28 654.40 188.20 659.32 188.20 665.40 Z" fill="#3f3d56" fill-rule="nonzero" node-id="94" stroke="none" target-height="22" target-width="22" target-x="166.2" target-y="654.4"></path><path d="M 320.20 785.40 C 320.20 791.48 315.28 796.40 309.20 796.40 C 303.12 796.40 298.20 791.48 298.20 785.40 C 298.20 779.32 303.12 774.40 309.20 774.40 C 315.28 774.40 320.20 779.32 320.20 785.40 Z" fill="#3f3d56" fill-rule="nonzero" node-id="96" stroke="none" target-height="22" target-width="22" target-x="298.2" target-y="774.4"></path><path d="M 821.20 785.40 C 821.20 791.48 816.28 796.40 810.20 796.40 C 804.12 796.40 799.20 791.48 799.20 785.40 C 799.20 779.32 804.12 774.40 810.20 774.40 C 816.28 774.40 821.20 779.32 821.20 785.40 Z" fill="#3f3d56" fill-rule="nonzero" node-id="98" stroke="none" target-height="22" target-width="21.999939" target-x="799.2001" target-y="774.4"></path><path d="M 848.20 645.40 C 848.20 651.48 843.28 656.40 837.20 656.40 C 831.12 656.40 826.20 651.48 826.20 645.40 C 826.20 639.32 831.12 634.40 837.20 634.40 C 843.28 634.40 848.20 639.32 848.20 645.40 Z" fill="#3f3d56" fill-rule="nonzero" node-id="100" stroke="none" target-height="22" target-width="22" target-x="826.2" target-y="634.4"></path><path d="M 816.20 543.40 C 816.20 549.48 811.28 554.40 805.20 554.40 C 799.12 554.40 794.20 549.48 794.20 543.40 C 794.20 537.32 799.12 532.40 805.20 532.40 C 811.28 532.40 816.20 537.32 816.20 543.40 Z" fill="#3f3d56" fill-rule="nonzero" node-id="102" stroke="none" target-height="22" target-width="22" target-x="794.2" target-y="532.4"></path><path d="M 346.20 645.40 C 346.20 651.40 341.30 656.30 335.20 656.30 C 329.20 656.30 324.30 651.40 324.30 645.30 C 324.30 639.30 329.20 634.40 335.30 634.40 C 340.50 634.40 345.00 638.10 346.00 643.20 C 346.10 644.00 346.20 644.70 346.20 645.40 Z" fill="#3f3d56" fill-rule="nonzero" node-id="104" stroke="none" target-height="21.899963" target-width="21.900024" target-x="324.3" target-y="634.4"></path><path d="M 577.20 575.40 C 577.20 581.48 572.28 586.40 566.20 586.40 C 560.12 586.40 555.20 581.48 555.20 575.40 C 555.20 569.32 560.12 564.40 566.20 564.40 C 572.28 564.40 577.20 569.32 577.20 575.40 Z" fill="#3f3d56" fill-rule="nonzero" node-id="106" stroke="none" target-height="22" target-width="22" target-x="555.2" target-y="564.4"></path><path d="M 457.20 575.40 C 457.20 581.40 452.30 586.30 446.20 586.30 C 440.20 586.30 435.30 581.40 435.30 575.30 C 435.30 569.30 440.20 564.40 446.30 564.40 C 451.50 564.40 456.00 568.10 457.00 573.20 C 457.10 574.00 457.20 574.70 457.20 575.40 Z" fill="#3f3d56" fill-rule="nonzero" node-id="108" stroke="none" target-height="21.899963" target-width="21.900024" target-x="435.3" target-y="564.4"></path><path d="M 315.20 543.40 C 315.20 549.40 310.30 554.30 304.20 554.30 C 298.20 554.30 293.30 549.40 293.30 543.30 C 293.30 537.30 298.20 532.40 304.30 532.40 C 309.50 532.40 314.00 536.10 315.00 541.20 C 315.10 542.00 315.20 542.70 315.20 543.40 Z" fill="#3f3d56" fill-rule="nonzero" node-id="110" stroke="none" target-height="21.899963" target-width="21.900024" target-x="293.3" target-y="532.4"></path><path d="M 692.20 669.40 C 692.20 675.48 687.28 680.40 681.20 680.40 C 675.12 680.40 670.20 675.48 670.20 669.40 C 670.20 663.32 675.12 658.40 681.20 658.40 C 687.28 658.40 692.20 663.32 692.20 669.40 Z" fill="#3f3d56" fill-rule="nonzero" node-id="112" stroke="none" target-height="22" target-width="22" target-x="670.2" target-y="658.4"></path><path d="M 524.20 564.40 C 524.20 573.24 517.04 580.40 508.20 580.40 C 499.36 580.40 492.20 573.24 492.20 564.40 C 492.20 555.56 499.36 548.40 508.20 548.40 C 517.04 548.40 524.20 555.56 524.20 564.40 Z" fill="#3f3d56" fill-rule="nonzero" node-id="114" stroke="none" target-height="32" target-width="32" target-x="492.2" target-y="548.4"></path><path d="M 940.90 797.30 L 83.10 797.60 C 82.40 797.60 81.90 797.10 81.90 796.40 C 81.90 795.70 82.40 795.20 83.10 795.20 C 83.10 795.20 83.10 795.20 83.10 795.20 L 940.90 794.90 C 941.60 794.90 942.10 795.40 942.10 796.10 C 942.10 796.70 941.50 797.30 940.90 797.30 Z" fill="#cacaca" fill-rule="nonzero" node-id="116" stroke="none" target-height="2.7000122" target-width="860.19995" target-x="81.9" target-y="794.89996"></path></svg>