<?xml version="1.0" standalone="no"?><!DOCTYPE svg PUBLIC "-//W3C//DTD SVG 1.1//EN" "http://www.w3.org/Graphics/SVG/1.1/DTD/svg11.dtd"><svg height="1024" node-id="1" sillyvg="true" template-height="1024" template-width="1024" version="1.1" viewBox="0 0 1024 1024" width="1024" xmlns="http://www.w3.org/2000/svg" xmlns:xlink="http://www.w3.org/1999/xlink"><defs node-id="48"></defs><path d="M 642.70 292.60 C 596.10 285.20 543.00 281.20 487.70 281.20 C 437.10 281.20 388.30 284.50 344.70 290.80 C 344.70 290.10 344.70 289.50 344.70 288.80 C 347.10 206.50 415.80 141.80 498.10 144.30 C 577.60 146.70 641.30 211.10 642.60 290.60 C 642.70 291.30 642.70 291.90 642.70 292.60 Z" fill="#c5a47a" fill-rule="nonzero" node-id="50" stroke="none" target-height="150.8" target-width="298" target-x="344.7" target-y="141.8"></path><g node-id="164"><path d="M 513.30 144.10 C 431.70 133.10 356.70 190.30 345.60 271.90 C 344.90 277.00 344.50 282.20 344.30 287.40 C 344.30 288.10 344.30 288.70 344.30 289.40 C 357.30 287.50 370.70 285.90 384.50 284.60 C 387.90 212.90 442.10 153.80 513.30 144.10 Z" fill="#ffffff" fill-opacity="0.1" fill-rule="nonzero" group-id="1" node-id="54" stroke="none" target-height="156.29999" target-width="169.00003" target-x="344.29996" target-y="133.1"></path></g><path d="M 707.90 304.40 C 686.40 298.60 664.70 294.00 642.70 290.60 C 606.70 285.00 570.40 281.50 534.00 280.20 C 518.80 279.60 503.40 279.30 487.80 279.30 C 475.40 279.30 463.10 279.50 451.00 279.90 C 415.50 280.90 380.00 283.90 344.80 288.90 C 318.70 292.50 292.90 297.70 267.60 304.60 C 208.40 321.00 175.80 342.90 175.80 366.40 C 175.80 389.90 208.40 411.80 267.60 428.20 C 309.20 439.70 360.60 447.60 416.50 451.20 C 439.60 452.70 463.50 453.50 487.80 453.50 C 512.20 453.50 536.10 452.70 559.30 451.20 C 610.20 447.90 657.30 441.10 696.70 431.20 C 696.90 431.10 697.10 431.10 697.30 431.00 C 700.00 430.30 702.60 429.60 705.20 429.00 C 706.10 428.70 707.00 428.50 708.00 428.20 C 708.10 428.20 708.10 428.20 708.20 428.20 C 709.10 428.00 710.00 427.70 710.80 427.50 C 712.50 427.00 714.30 426.50 715.90 426.00 C 716.00 426.00 716.00 426.00 716.10 425.90 C 717.60 425.50 719.00 425.00 720.40 424.60 C 721.60 424.20 722.70 423.90 723.90 423.50 C 724.70 423.20 725.60 423.00 726.40 422.70 C 727.00 422.50 727.60 422.30 728.20 422.10 C 729.00 421.80 729.80 421.60 730.60 421.30 C 730.90 421.20 731.30 421.10 731.60 421.00 C 732.40 420.80 733.10 420.50 733.80 420.20 C 734.60 419.90 735.40 419.60 736.20 419.30 C 736.90 419.10 737.50 418.80 738.10 418.60 C 738.60 418.40 739.20 418.20 739.70 418.00 C 741.20 417.50 742.60 416.90 744.00 416.30 C 744.70 416.00 745.40 415.70 746.10 415.40 C 746.80 415.10 747.50 414.80 748.20 414.50 C 749.30 414.00 750.40 413.60 751.50 413.10 C 752.00 412.90 752.60 412.60 753.10 412.40 C 753.50 412.20 753.90 412.00 754.30 411.90 C 754.60 411.80 754.90 411.70 755.10 411.50 C 756.10 411.00 757.10 410.60 758.10 410.10 C 761.90 408.30 765.40 406.50 768.60 404.60 C 789.10 392.90 799.80 379.90 799.80 366.40 C 799.70 342.70 767.10 320.80 707.90 304.40 Z M 707.40 426.00 C 665.70 437.50 614.20 445.40 558.10 449.00 C 535.30 450.50 511.70 451.20 487.70 451.20 C 463.80 451.20 440.30 450.50 417.60 449.00 C 361.40 445.40 309.90 437.60 268.10 426.00 C 209.80 409.90 177.70 388.60 177.70 366.10 C 177.70 364.10 178.00 362.10 178.40 360.20 C 183.50 339.90 214.90 320.90 268.00 306.20 C 293.20 299.40 318.80 294.20 344.70 290.60 C 380.10 285.60 415.80 282.60 451.50 281.60 C 463.40 281.20 475.50 281.00 487.70 281.00 C 503.10 281.00 518.30 281.30 533.30 281.90 C 569.90 283.30 606.40 286.80 642.70 292.40 C 664.50 295.80 686.10 300.40 707.30 306.10 C 760.40 320.80 791.80 339.80 796.90 360.00 C 797.40 361.90 797.60 363.90 797.70 365.90 C 797.70 388.70 765.60 409.90 707.40 426.00 L 707.40 426.00 Z" fill="#3f3d56" fill-rule="nonzero" node-id="57" stroke="none" target-height="174.20001" target-width="623.9999" target-x="175.80002" target-y="279.3"></path><path d="M 799.20 367.10 C 799.20 380.50 788.20 393.10 768.50 404.40 C 765.20 406.30 761.70 408.10 758.00 409.90 C 757.00 410.40 756.00 410.80 755.00 411.30 C 754.70 411.40 754.40 411.60 754.20 411.70 C 753.80 411.90 753.40 412.10 753.00 412.20 C 752.50 412.40 752.00 412.70 751.40 412.90 C 750.30 413.40 749.20 413.80 748.10 414.30 C 747.40 414.60 746.70 414.90 746.00 415.20 C 745.30 415.50 744.60 415.80 743.90 416.10 C 742.50 416.70 741.00 417.20 739.60 417.80 C 739.10 418.00 738.50 418.20 738.00 418.40 C 737.40 418.60 736.70 418.90 736.10 419.10 C 735.30 419.40 734.50 419.70 733.70 420.00 C 733.00 420.30 732.20 420.50 731.50 420.80 C 731.20 420.90 730.90 421.00 730.50 421.10 C 729.70 421.40 728.90 421.60 728.10 421.90 C 727.50 422.10 726.90 422.30 726.30 422.50 C 725.50 422.80 724.60 423.00 723.80 423.30 C 722.70 423.70 721.50 424.00 720.30 424.40 C 718.90 424.80 717.40 425.30 716.00 425.70 C 715.90 425.70 715.90 425.70 715.80 425.80 C 714.10 426.30 712.40 426.80 710.70 427.30 C 709.80 427.50 709.00 427.80 708.10 428.00 C 708.00 428.00 708.00 428.00 707.90 428.00 C 707.00 428.20 706.10 428.50 705.10 428.80 C 702.50 429.50 699.90 430.20 697.20 430.80 C 697.00 430.80 696.80 430.90 696.60 431.00 C 658.20 440.60 611.20 447.60 559.10 450.90 C 536.30 452.40 512.50 453.10 488.10 453.10 C 463.50 453.10 439.50 452.30 416.50 450.80 C 279.30 441.80 177.10 407.80 177.10 367.10 C 177.10 364.60 177.50 362.20 178.20 359.80 C 178.30 360.00 178.30 360.10 178.40 360.30 C 192.70 397.80 293.90 428.10 425.30 435.50 C 445.40 436.60 466.30 437.20 487.60 437.20 C 509.00 437.20 530.00 436.60 550.20 435.50 C 681.50 428.10 782.70 397.80 796.90 360.30 C 797.10 359.70 797.40 359.10 797.50 358.50 C 798.60 361.20 799.20 364.20 799.20 367.10 Z" fill="#3f3d56" fill-rule="nonzero" node-id="59" stroke="none" target-height="94.60004" target-width="622.1001" target-x="177.1" target-y="358.49997"></path><path d="M 267.40 356.30 C 250.80 356.30 233.10 352.70 233.10 346.10 C 233.10 339.50 250.80 335.90 267.40 335.90 C 284.00 335.90 301.70 339.50 301.70 346.10 C 301.70 352.70 284.00 356.30 267.40 356.30 Z M 267.40 337.90 C 248.30 337.90 235.10 342.20 235.10 346.10 C 235.10 350.00 248.40 354.30 267.40 354.30 C 286.40 354.30 299.70 350.00 299.70 346.10 C 299.70 342.20 286.50 337.90 267.40 337.90 Z" fill="#3f3d56" fill-rule="nonzero" node-id="61" stroke="none" target-height="20.399994" target-width="68.600006" target-x="233.1" target-y="335.9"></path><path d="M 338.40 403.30 C 321.80 403.30 304.10 399.70 304.10 393.10 C 304.10 386.50 321.80 382.90 338.40 382.90 C 355.00 382.90 372.70 386.50 372.70 393.10 C 372.70 399.70 355.00 403.30 338.40 403.30 Z M 338.40 384.90 C 319.30 384.90 306.10 389.20 306.10 393.10 C 306.10 397.00 319.40 401.30 338.40 401.30 C 357.40 401.30 370.70 397.00 370.70 393.10 C 370.70 389.20 357.50 384.90 338.40 384.90 Z" fill="#3f3d56" fill-rule="nonzero" node-id="63" stroke="none" target-height="20.400024" target-width="68.599976" target-x="304.1" target-y="382.89996"></path><path d="M 707.40 356.30 C 690.80 356.30 673.10 352.70 673.10 346.10 C 673.10 339.50 690.80 335.90 707.40 335.90 C 724.00 335.90 741.70 339.50 741.70 346.10 C 741.70 352.70 724.00 356.30 707.40 356.30 Z M 707.40 337.90 C 688.30 337.90 675.10 342.20 675.10 346.10 C 675.10 350.00 688.40 354.30 707.40 354.30 C 726.40 354.30 739.70 350.00 739.70 346.10 C 739.70 342.20 726.50 337.90 707.40 337.90 Z" fill="#3f3d56" fill-rule="nonzero" node-id="65" stroke="none" target-height="20.399994" target-width="68.60004" target-x="673.1" target-y="335.9"></path><path d="M 636.40 403.30 C 619.80 403.30 602.10 399.70 602.10 393.10 C 602.10 386.50 619.80 382.90 636.40 382.90 C 653.00 382.90 670.70 386.50 670.70 393.10 C 670.70 399.70 653.00 403.30 636.40 403.30 Z M 636.40 384.90 C 617.30 384.90 604.10 389.20 604.10 393.10 C 604.10 397.00 617.40 401.30 636.40 401.30 C 655.40 401.30 668.70 397.00 668.70 393.10 C 668.70 389.20 655.50 384.90 636.40 384.90 Z" fill="#3f3d56" fill-rule="nonzero" node-id="67" stroke="none" target-height="20.400024" target-width="68.60004" target-x="602.1" target-y="382.89996"></path><path d="M 487.40 425.30 C 470.80 425.30 453.10 421.70 453.10 415.10 C 453.10 408.50 470.80 404.90 487.40 404.90 C 504.00 404.90 521.70 408.50 521.70 415.10 C 521.70 421.70 504.00 425.30 487.40 425.30 Z M 487.40 406.90 C 468.30 406.90 455.10 411.20 455.10 415.10 C 455.10 419.00 468.40 423.30 487.40 423.30 C 506.40 423.30 519.70 419.00 519.70 415.10 C 519.70 411.20 506.50 406.90 487.40 406.90 Z" fill="#3f3d56" fill-rule="nonzero" node-id="69" stroke="none" target-height="20.399963" target-width="68.600006" target-x="453.1" target-y="404.9"></path><path d="M 554.70 593.50 C 554.70 616.70 535.90 635.50 512.70 635.50 C 489.50 635.50 470.70 616.70 470.70 593.50 C 470.70 570.30 489.50 551.50 512.70 551.50 C 535.90 551.50 554.70 570.30 554.70 593.50 Z" fill="#2f2e41" fill-rule="nonzero" node-id="71" stroke="none" target-height="84" target-width="83.99997" target-x="470.70004" target-y="551.5"></path><g node-id="165"><path d="M 476.27 631.37 L 496.75 621.11 L 502.48 632.56 L 482.00 642.81 Z" fill="#2f2e41" fill-rule="nonzero" group-id="2" node-id="75" stroke="none" target-height="21.699097" target-width="26.206726" target-x="476.271" target-y="621.11084"></path></g><g node-id="166"><path d="M 478.01 632.40 C 482.90 635.63 485.88 639.73 484.66 641.58 C 483.45 643.42 478.50 642.31 473.61 639.08 C 468.72 635.86 465.75 631.75 466.96 629.91 C 468.18 628.06 473.13 629.18 478.01 632.40 Z" fill="#2f2e41" fill-rule="nonzero" group-id="3" node-id="80" stroke="none" target-height="15.359436" target-width="20.13208" target-x="465.746" target-y="628.0634"></path></g><g node-id="167"><path d="M 522.97 632.54 L 528.70 621.09 L 549.18 631.35 L 543.44 642.79 Z" fill="#2f2e41" fill-rule="nonzero" group-id="4" node-id="85" stroke="none" target-height="21.699097" target-width="26.206665" target-x="522.9685" target-y="621.0923"></path></g><g node-id="168"><path d="M 558.47 629.88 C 559.69 631.72 556.71 635.83 551.82 639.06 C 546.93 642.28 541.99 643.40 540.77 641.55 C 539.55 639.71 542.53 635.60 547.42 632.38 C 552.31 629.15 557.25 628.04 558.47 629.88 Z" fill="#2f2e41" fill-rule="nonzero" group-id="5" node-id="90" stroke="none" target-height="15.359314" target-width="20.13208" target-x="539.5536" target-y="628.0358"></path></g><path d="M 524.20 583.20 C 524.20 587.02 522.68 590.68 519.98 593.38 C 517.28 596.08 513.62 597.60 509.80 597.60 C 505.98 597.60 502.32 596.08 499.62 593.38 C 496.92 590.68 495.40 587.02 495.40 583.20 C 495.40 579.38 496.92 575.72 499.62 573.02 C 502.32 570.32 505.98 568.80 509.80 568.80 C 513.62 568.80 517.28 570.32 519.98 573.02 C 522.68 575.72 524.20 579.38 524.20 583.20 Z" fill="#ffffff" fill-rule="nonzero" node-id="93" stroke="none" target-height="28.800049" target-width="28.800049" target-x="495.39996" target-y="568.8"></path><g node-id="169"><path d="M 513.29 573.68 C 514.19 574.58 514.69 575.80 514.69 577.07 C 514.69 578.35 514.19 579.57 513.29 580.47 C 511.41 582.34 508.38 582.34 506.50 580.47 C 504.63 578.59 504.63 575.55 506.50 573.68 C 507.40 572.78 508.62 572.27 509.89 572.27 C 511.17 572.27 512.39 572.78 513.29 573.68 Z" fill="#3f3d56" fill-rule="nonzero" group-id="6" node-id="97" stroke="none" target-height="10.0686035" target-width="10.068512" target-x="504.62643" target-y="572.2733"></path></g><path d="M 545.90 547.80 C 546.50 532.20 533.10 519.10 516.00 518.40 C 498.80 517.70 484.40 529.70 483.80 545.30 C 483.20 560.90 495.10 564.40 512.30 565.10 C 529.50 565.80 545.20 563.40 545.90 547.80 Z" fill="#c5a47a" fill-rule="nonzero" node-id="100" stroke="none" target-height="48.099976" target-width="63.299988" target-x="483.2" target-y="517.7"></path><g node-id="170"><path d="M 561.47 595.30 C 569.02 604.10 572.90 613.15 570.14 615.53 C 567.37 617.90 559.00 612.69 551.45 603.89 C 543.89 595.09 540.01 586.03 542.78 583.66 C 545.54 581.29 553.91 586.49 561.47 595.30 Z" fill="#2f2e41" fill-rule="nonzero" group-id="7" node-id="104" stroke="none" target-height="36.618286" target-width="32.890503" target-x="540.01276" target-y="581.28516"></path></g><g node-id="171"><path d="M 482.93 583.62 C 485.69 585.99 481.81 595.05 474.25 603.85 C 466.70 612.65 458.33 617.86 455.57 615.49 C 452.80 613.11 456.68 604.05 464.24 595.25 C 471.79 586.45 480.16 581.24 482.93 583.62 Z" fill="#2f2e41" fill-rule="nonzero" group-id="8" node-id="109" stroke="none" target-height="36.618347" target-width="32.890564" target-x="452.8011" target-y="581.24115"></path></g><path d="M 524.30 610.10 C 525.20 615.30 521.80 620.30 516.60 621.20 C 511.40 622.10 506.40 618.70 505.50 613.50 L 505.50 613.50 L 505.50 613.50 C 504.60 608.30 508.60 606.50 513.80 605.50 C 519.00 604.50 523.30 604.90 524.30 610.10 Z" fill="#ffffff" fill-rule="nonzero" node-id="112" stroke="none" target-height="17.599976" target-width="20.600006" target-x="504.6" target-y="604.5"></path><path d="M 441.70 638.20 C 440.60 638.20 439.70 637.30 439.70 636.20 L 439.70 518.20 C 439.70 517.10 440.60 516.20 441.70 516.20 C 442.80 516.20 443.70 517.10 443.70 518.20 L 443.70 636.20 C 443.70 637.30 442.80 638.20 441.70 638.20 Z" fill="#cccccc" fill-rule="nonzero" node-id="114" stroke="none" target-height="122" target-width="3.9999695" target-x="439.70004" target-y="516.2"></path><path d="M 411.70 744.20 C 410.60 744.20 409.70 743.30 409.70 742.20 L 409.70 656.20 C 409.70 655.10 410.60 654.20 411.70 654.20 C 412.80 654.20 413.70 655.10 413.70 656.20 L 413.70 742.20 C 413.70 743.30 412.80 744.20 411.70 744.20 Z" fill="#cccccc" fill-rule="nonzero" node-id="116" stroke="none" target-height="90" target-width="4" target-x="409.7" target-y="654.2"></path><path d="M 488.70 673.20 C 487.60 673.20 486.70 672.30 486.70 671.20 L 486.70 553.20 C 486.70 552.10 487.60 551.20 488.70 551.20 C 489.80 551.20 490.70 552.10 490.70 553.20 L 490.70 671.20 C 490.70 672.30 489.80 673.20 488.70 673.20 Z" fill="#cccccc" fill-rule="nonzero" node-id="118" stroke="none" target-height="122" target-width="3.9999695" target-x="486.70004" target-y="551.2"></path><path d="M 459.70 758.20 C 458.60 758.20 457.70 757.30 457.70 756.20 L 457.70 708.20 C 457.70 707.10 458.60 706.20 459.70 706.20 C 460.80 706.20 461.70 707.10 461.70 708.20 L 461.70 756.20 C 461.70 757.30 460.80 758.20 459.70 758.20 Z" fill="#cccccc" fill-rule="nonzero" node-id="120" stroke="none" target-height="51.99994" target-width="4" target-x="457.7" target-y="706.2001"></path><path d="M 500.70 512.20 C 499.60 512.20 498.70 511.30 498.70 510.20 L 498.70 462.20 C 498.70 461.10 499.60 460.20 500.70 460.20 C 501.80 460.20 502.70 461.10 502.70 462.20 L 502.70 510.20 C 502.70 511.30 501.80 512.20 500.70 512.20 Z" fill="#cccccc" fill-rule="nonzero" node-id="122" stroke="none" target-height="52" target-width="4.0000305" target-x="498.7" target-y="460.2"></path><path d="M 400.70 533.20 C 399.60 533.20 398.70 532.30 398.70 531.20 L 398.70 483.20 C 398.70 482.10 399.60 481.20 400.70 481.20 C 401.80 481.20 402.70 482.10 402.70 483.20 L 402.70 531.20 C 402.70 532.30 401.80 533.20 400.70 533.20 Z" fill="#cccccc" fill-rule="nonzero" node-id="124" stroke="none" target-height="52" target-width="4" target-x="398.7" target-y="481.2"></path><path d="M 574.70 538.20 C 573.60 538.20 572.70 537.30 572.70 536.20 L 572.70 488.20 C 572.70 487.10 573.60 486.20 574.70 486.20 C 575.80 486.20 576.70 487.10 576.70 488.20 L 576.70 536.20 C 576.70 537.30 575.80 538.20 574.70 538.20 Z" fill="#cccccc" fill-rule="nonzero" node-id="126" stroke="none" target-height="52.00003" target-width="4" target-x="572.7" target-y="486.19998"></path><path d="M 570.70 688.20 C 569.60 688.20 568.70 687.30 568.70 686.20 L 568.70 628.20 C 568.70 627.10 569.60 626.20 570.70 626.20 C 571.80 626.20 572.70 627.10 572.70 628.20 L 572.70 686.20 C 572.70 687.30 571.80 688.20 570.70 688.20 Z" fill="#cccccc" fill-rule="nonzero" node-id="128" stroke="none" target-height="62" target-width="4" target-x="568.7" target-y="626.2"></path><path d="M 530.70 739.20 C 529.60 739.20 528.70 738.30 528.70 737.20 L 528.70 651.20 C 528.70 650.10 529.60 649.20 530.70 649.20 C 531.80 649.20 532.70 650.10 532.70 651.20 L 532.70 737.20 C 532.70 738.30 531.80 739.20 530.70 739.20 Z" fill="#cccccc" fill-rule="nonzero" node-id="130" stroke="none" target-height="90" target-width="4" target-x="528.7" target-y="649.2"></path><path d="M 538.70 592.20 C 537.60 592.20 536.70 591.30 536.70 590.20 L 536.70 472.20 C 536.70 471.10 537.60 470.20 538.70 470.20 C 539.80 470.20 540.70 471.10 540.70 472.20 L 540.70 590.20 C 540.70 591.30 539.80 592.20 538.70 592.20 Z" fill="#cccccc" fill-rule="nonzero" node-id="132" stroke="none" target-height="122.00003" target-width="4" target-x="536.7" target-y="470.19998"></path><g node-id="172"><path d="M 775.33 822.38 C 782.95 831.48 786.80 840.81 783.92 843.22 C 781.04 845.64 772.52 840.21 764.90 831.11 C 757.28 822.00 753.43 812.67 756.31 810.26 C 759.19 807.85 767.71 813.27 775.33 822.38 Z" fill="#2f2e41" fill-rule="nonzero" group-id="9" node-id="136" stroke="none" target-height="37.79016" target-width="33.364746" target-x="753.43225" target-y="807.8457"></path></g><path d="M 767.40 819.30 C 767.40 843.10 748.10 862.40 724.30 862.40 C 700.50 862.40 681.20 843.10 681.20 819.30 C 681.20 795.50 700.50 776.20 724.30 776.20 C 748.10 776.20 767.40 795.50 767.40 819.30 Z" fill="#2f2e41" fill-rule="nonzero" node-id="139" stroke="none" target-height="86.19995" target-width="86.19995" target-x="681.2" target-y="776.2"></path><path d="M 729.40 853.10 L 742.50 853.10 L 742.50 876.50 L 729.40 876.50 Z" fill="#2f2e41" fill-rule="nonzero" node-id="141" stroke="none" target-height="23.400024" target-width="13.099976" target-x="729.4" target-y="853.1"></path><path d="M 703.30 853.10 L 716.40 853.10 L 716.40 876.50 L 703.30 876.50 Z" fill="#2f2e41" fill-rule="nonzero" node-id="143" stroke="none" target-height="23.400024" target-width="13.099976" target-x="703.3" target-y="853.1"></path><path d="M 742.50 876.80 C 742.50 879.06 737.62 880.90 731.60 880.90 C 725.58 880.90 720.70 879.06 720.70 876.80 C 720.70 874.54 725.58 872.70 731.60 872.70 C 737.62 872.70 742.50 874.54 742.50 876.80 Z" fill="#2f2e41" fill-rule="nonzero" node-id="145" stroke="none" target-height="8.19989" target-width="21.800049" target-x="720.69995" target-y="872.7"></path><path d="M 716.40 876.30 C 716.40 878.56 711.52 880.40 705.50 880.40 C 699.48 880.40 694.60 878.56 694.60 876.30 C 694.60 874.04 699.48 872.20 705.50 872.20 C 711.52 872.20 716.40 874.04 716.40 876.30 Z" fill="#2f2e41" fill-rule="nonzero" node-id="147" stroke="none" target-height="8.199951" target-width="21.799927" target-x="694.60004" target-y="872.2"></path><path d="M 710.80 765.20 C 714.60 749.70 731.60 740.60 748.70 744.80 C 765.80 749.00 776.50 765.00 772.70 780.50 C 768.90 796.00 756.10 796.00 739.00 791.80 C 721.90 787.60 706.90 780.70 710.80 765.20 Z" fill="#cccccc" fill-rule="nonzero" node-id="149" stroke="none" target-height="55.400024" target-width="69.599976" target-x="706.9" target-y="740.6"></path><g node-id="173"><path d="M 678.65 793.15 C 689.37 798.24 696.77 805.12 695.16 808.51 C 693.55 811.90 683.55 810.53 672.82 805.44 C 662.09 800.35 654.70 793.48 656.31 790.08 C 657.92 786.69 667.92 788.07 678.65 793.15 Z" fill="#2f2e41" fill-rule="nonzero" group-id="10" node-id="153" stroke="none" target-height="25.211792" target-width="42.06897" target-x="654.697" target-y="786.6915"></path></g><path d="M 732.30 810.20 C 732.30 814.02 730.78 817.68 728.08 820.38 C 725.38 823.08 721.72 824.60 717.90 824.60 C 714.08 824.60 710.42 823.08 707.72 820.38 C 705.02 817.68 703.50 814.02 703.50 810.20 C 703.50 806.38 705.02 802.72 707.72 800.02 C 710.42 797.32 714.08 795.80 717.90 795.80 C 721.72 795.80 725.38 797.32 728.08 800.02 C 730.78 802.72 732.30 806.38 732.30 810.20 Z" fill="#ffffff" fill-rule="nonzero" node-id="156" stroke="none" target-height="28.799988" target-width="28.80017" target-x="703.49994" target-y="795.8"></path><path d="M 716.80 805.10 C 716.80 807.75 714.65 809.90 712.00 809.90 C 709.35 809.90 707.20 807.75 707.20 805.10 C 707.20 802.45 709.35 800.30 712.00 800.30 C 714.65 800.30 716.80 802.45 716.80 805.10 Z" fill="#3f3d56" fill-rule="nonzero" node-id="158" stroke="none" target-height="9.599976" target-width="9.599976" target-x="707.2" target-y="800.3"></path><path d="M 723.70 840.20 C 723.70 843.51 721.01 846.20 717.70 846.20 C 714.39 846.20 711.70 843.51 711.70 840.20 C 711.70 836.89 714.39 834.20 717.70 834.20 C 721.01 834.20 723.70 836.89 723.70 840.20 Z" fill="#ffffff" fill-rule="nonzero" node-id="160" stroke="none" target-height="11.999939" target-width="12" target-x="711.7" target-y="834.2001"></path><path d="M 847.30 881.20 L 611.30 881.20 C 610.70 881.20 610.30 880.80 610.30 880.20 C 610.30 879.60 610.70 879.20 611.30 879.20 L 847.30 879.20 C 847.90 879.20 848.30 879.60 848.30 880.20 C 848.30 880.80 847.80 881.20 847.30 881.20 Z" fill="#3f3d56" fill-rule="nonzero" node-id="162" stroke="none" target-height="2" target-width="237.99994" target-x="610.3" target-y="879.2"></path></svg>